<?xml version="1.0" standalone="no"?>
<!DOCTYPE svg PUBLIC "-//W3C//DTD SVG 20010904//EN"
 "http://www.w3.org/TR/2001/REC-SVG-20010904/DTD/svg10.dtd">
<svg version="1.0" xmlns="http://www.w3.org/2000/svg"
 width="500.000000pt" height="500.000000pt" viewBox="0 0 500.000000 500.000000"
 preserveAspectRatio="xMidYMid meet">
<metadata>
Created by potrace 1.14, written by Peter Selinger 2001-2017
</metadata>
<g transform="translate(0.000000,500.000000) scale(0.100000,-0.100000)"
fill="#000000" stroke="none">
<path d="M0 2500 l0 -2500 2500 0 2500 0 0 2500 0 2500 -2500 0 -2500 0 0
-2500z m4500 0 l0 -2000 -2000 0 -2000 0 0 2000 0 2000 2000 0 2000 0 0 -2000z"/>
<path d="M620 2500 l0 -1880 1880 0 1880 0 0 1880 0 1880 -1880 0 -1880 0 0
-1880z m2720 -1105 l0 -255 -1315 0 -1315 0 0 255 0 255 1315 0 1315 0 0 -255z"/>
<path d="M833 1582 c-123 -67 -129 -301 -8 -359 72 -34 153 20 174 117 22 102
10 193 -31 237 -26 28 -87 31 -135 5z m117 -42 c33 -62 17 -214 -27 -258 l-25
-25 -26 27 c-25 25 -27 33 -27 114 0 74 4 93 23 125 27 42 64 50 82 17z"/>
<path d="M1832 1575 c-93 -78 -83 -182 22 -225 59 -23 74 -46 56 -80 -14 -26
-65 -27 -79 -1 -6 10 -8 21 -5 23 8 9 -25 30 -36 23 -11 -7 -13 -35 -4 -60 10
-25 59 -45 114 -45 66 0 100 30 100 87 0 53 -23 82 -71 89 -73 12 -94 90 -40
145 40 40 67 38 85 -6 16 -38 35 -46 42 -17 4 12 17 18 49 20 l44 3 3 -153 3
-153 30 -3 c48 -6 55 15 55 169 l0 137 50 4 50 3 0 -95 c0 -162 30 -220 113
-220 27 0 49 6 57 15 11 13 14 13 27 0 16 -16 41 -19 60 -7 7 4 14 57 19 139
6 111 10 135 25 149 18 17 19 14 19 -97 0 -70 -4 -119 -11 -126 -8 -8 -3 -20
18 -42 38 -43 96 -52 136 -21 45 36 89 134 95 212 5 66 4 68 -30 102 -29 29
-43 35 -98 41 -46 5 -77 3 -107 -8 -26 -9 -45 -11 -51 -5 -5 5 -25 8 -43 6
l-34 -3 -6 -110 c-7 -132 -32 -205 -72 -205 -57 0 -80 63 -75 206 1 51 -1 96
-5 101 -14 14 -294 10 -308 -4 -10 -10 -18 -8 -36 9 -16 14 -40 23 -76 26 -46
4 -57 1 -85 -23z m950 -44 c36 -13 44 -49 28 -120 -14 -64 -33 -106 -63 -138
-41 -45 -45 -33 -45 128 l1 151 26 -5 c14 -3 38 -10 53 -16z"/>
<path d="M2896 1591 c-41 -6 -59 -27 -32 -37 14 -5 16 -28 16 -153 0 -95 -4
-151 -11 -158 -22 -22 2 -36 54 -29 57 6 77 20 59 38 -16 16 -17 299 -1 315 6
6 8 16 5 22 -8 12 -26 12 -90 2z"/>
<path d="M3094 1586 c-17 -8 -43 -29 -56 -47 -72 -96 -61 -232 23 -303 28 -24
39 -27 73 -23 21 3 50 14 64 24 81 61 90 311 13 353 -27 14 -80 12 -117 -4z
m113 -56 c15 -31 17 -141 2 -193 -12 -46 -43 -79 -64 -71 -40 16 -64 116 -45
193 22 93 77 130 107 71z"/>
<path d="M1235 1581 c-11 -5 -36 -7 -55 -4 -56 8 -71 -17 -72 -118 0 -46 1
-88 2 -94 1 -5 1 -33 0 -61 -2 -58 16 -84 55 -84 31 0 45 27 45 84 0 37 3 46
18 46 28 0 74 36 99 77 27 45 30 103 6 132 -20 24 -68 35 -98 22z m65 -46 c31
-37 -30 -145 -81 -145 -17 0 -19 8 -19 63 0 61 1 64 33 80 41 20 52 21 67 2z"/>
<path d="M1570 1581 c-14 -4 -41 -6 -61 -3 -53 6 -68 -20 -61 -105 4 -48 1
-67 -9 -73 -10 -7 -11 -13 -1 -32 6 -13 13 -47 14 -77 3 -61 19 -78 61 -67 25
6 27 10 27 66 0 50 3 60 18 60 28 0 81 37 102 72 12 21 20 51 20 80 0 38 -5
50 -26 67 -28 22 -42 24 -84 12z m65 -52 c12 -36 -4 -86 -36 -113 -49 -42 -59
-35 -59 39 0 60 2 65 28 79 38 21 60 19 67 -5z"/>
<path d="M1024 1266 c-9 -24 4 -48 23 -44 12 2 18 12 18 28 0 29 -32 41 -41
16z"/>
<path d="M1355 1270 c-9 -15 4 -50 19 -50 20 0 39 27 32 45 -6 17 -42 20 -51
5z"/>
</g>
</svg>
